<svg width="18" height="18" viewBox="0 0 18 18" fill="none" xmlns="http://www.w3.org/2000/svg">
<path d="M4.5 14.25C4.5 15.075 5.175 15.75 6 15.75H12C12.825 15.75 13.5 15.075 13.5 14.25V7.75C13.5 6.925 12.825 6.25 12 6.25H9H6C5.175 6.25 4.5 6.925 4.5 7.75V14.25ZM13.5 3H11.625L11.0925 1.4675C10.9575 1.3325 10.7625 1.25 10.5675 1.25H7.4325C7.2375 1.25 7.0425 1.3325 6.9075 1.4675L6.375 3H4.5C4.0875 3 3.75 3.3375 3.75 3.75C3.75 4.1625 4.0875 4.5 4.5 4.5H13.5C13.9125 4.5 14.25 4.1625 14.25 3.75C14.25 3.3375 13.9125 3 13.5 3Z" fill="white"/>
<path d="M11.7185 8.37831C11.553 8.21289 11.2858 8.21289 11.1204 8.37831L9.04626 10.4482L6.97213 8.37407C6.80671 8.20864 6.53949 8.20864 6.37407 8.37407C6.20864 8.53949 6.20864 8.80671 6.37407 8.97213L8.4482 11.0463L6.37407 13.1204C6.20864 13.2858 6.20864 13.553 6.37407 13.7185C6.53949 13.8839 6.80671 13.8839 6.97213 13.7185L9.04626 11.6443L11.1204 13.7185C11.2858 13.8839 11.553 13.8839 11.7185 13.7185C11.8839 13.553 11.8839 13.2858 11.7185 13.1204L9.64433 11.0463L11.7185 8.97213C11.8796 8.81095 11.8796 8.53949 11.7185 8.37831Z" fill="#F41329"/>
</svg>
