<svg width="24" height="24" viewBox="0 0 24 24" fill="none" xmlns="http://www.w3.org/2000/svg">
<rect width="24" height="24" rx="12" fill="#F27140"/>
<path d="M11.0025 18.75C10.74 18.75 10.5375 18.5175 10.575 18.255L11.25 13.5H8.62498C7.96498 13.5 8.37748 12.9375 8.39248 12.915C9.33748 11.2425 10.755 8.7675 12.63 5.4675C12.705 5.3325 12.855 5.25 13.005 5.25C13.2675 5.25 13.47 5.4825 13.4325 5.745L12.7575 10.5H15.39C15.69 10.5 15.855 10.6425 15.69 10.995C13.2225 15.3 11.79 17.8125 11.3775 18.5325C11.3025 18.6675 11.16 18.75 11.0025 18.75Z" fill="white"/>
</svg>
